<?xml version="1.0" encoding="utf-8"?>
<svg viewBox="-271.516 -364.713 1521.508 882.577" xmlns="http://www.w3.org/2000/svg">
  <path d="m 244.672,686.148 h 803.808 c 1.946,-16.339 2.95,-32.976 2.95,-49.851 0,-226.934 -181.262,-410.899 -404.856,-410.899 -223.594,0 -404.851,183.965 -404.851,410.899 0,16.875 1.004,33.512 2.949,49.851 z M 833.199,525.613 c -36.414,0 -65.933,-27.05 -65.933,-60.429 0,-33.379 29.519,-60.438 65.933,-60.438 36.414,0 65.926,27.059 65.926,60.438 0,33.379 -29.512,60.429 -65.926,60.429 z M 519.344,403.371 c 61.062,0 110.574,42.43 110.574,94.777 0,52.344 -49.512,94.77 -110.574,94.77 -61.063,0 -110.567,-42.426 -110.567,-94.77 0,-52.347 49.504,-94.777 110.567,-94.777" style="fill:#0c7997;fill-opacity:1;fill-rule:evenodd;stroke:none" id="path14" transform="matrix(1.333333, 0, 0, 1.333333, -304.30838, -396.999878)"/>
  <path d="m 909.402,313.172 c 66.383,45.726 112.891,108.43 138.793,188.754 l 52.184,-18.09 c -5.574,-40.481 -20.738,-81.981 -50.649,-125.047 2.614,-27.512 19.239,-25.426 62.063,-43.004 5.652,0.102 11.652,-0.605 17.719,-2.254 24.047,-6.523 39.929,-25.156 35.461,-41.609 -4.457,-16.457 -27.575,-24.508 -51.629,-17.977 -24.051,6.516 -39.934,25.137 -35.465,41.602 1.719,6.348 6.215,11.449 12.48,14.941 -29.07,8.422 -39.984,5.793 -56.007,27.867 -23.227,-24.367 -55.668,-48.742 -88.899,-66.453 z" style="fill:#0c7997;fill-opacity:1;fill-rule:evenodd;stroke:none" id="path16" transform="matrix(1.333333, 0, 0, 1.333333, -304.30838, -396.999878)"/>
  <path d="m 418.516,237.996 c 115.105,-33.922 221.058,-45.59 317.699,-34.641 l 3.957,-39.589 C 687.395,155.512 634.602,153.73 581.82,158.504 v -22.012 c 27.243,-5.953 47.504,-28.484 47.504,-55.367 0,-31.43 -27.691,-56.91 -61.859,-56.91 -34.16,0 -61.86,25.48 -61.86,56.91 0,29.43 24.286,53.645 55.43,56.605 v 22.985 c -51.469,6.316 -102.933,18.863 -154.402,37.687 z" style="fill:#0c7997;fill-opacity:1;fill-rule:evenodd;stroke:none" id="path18" transform="matrix(1.333333, 0, 0, 1.333333, -304.30838, -396.999878)"/>
  <path d="m 202.73,601.379 c 4.09,-86.848 33.426,-161.734 87.106,-225.094 l -46.981,-31.316 c -28.265,26.574 -53.945,59.554 -70.464,90.039 -21.891,-17.617 -32.028,-12.063 -63.2,-12.602 5.278,-5.16 8.375,-11.445 8.375,-18.218 0,-17.567 -20.812,-31.805 -46.484,-31.805 -25.676,0 -46.488,14.238 -46.488,31.805 0,17.566 20.812,31.804 46.488,31.804 6.469,0 12.629,-0.906 18.223,-2.535 47.312,5.93 63.289,-0.621 73.297,26.02 -18.122,50.886 -22.008,96.238 -16.637,137.992 z" style="fill:#0c7997;fill-opacity:1;fill-rule:evenodd;stroke:none" id="path20" transform="matrix(1.333333, 0, 0, 1.333333, -304.30838, -396.999878)"/>
</svg>