<?xml version="1.0" encoding="UTF-8" standalone="no"?>
<svg
   xmlns:dc="http://purl.org/dc/elements/1.1/"
   xmlns:cc="http://creativecommons.org/ns#"
   xmlns:rdf="http://www.w3.org/1999/02/22-rdf-syntax-ns#"
   xmlns:svg="http://www.w3.org/2000/svg"
   xmlns="http://www.w3.org/2000/svg"
   xmlns:sodipodi="http://sodipodi.sourceforge.net/DTD/sodipodi-0.dtd"
   xmlns:inkscape="http://www.inkscape.org/namespaces/inkscape"
   version="1.1"
   id="svg2"
   xml:space="preserve"
   width="1652.6007"
   height="1294.0012"
   viewBox="0 0 1652.6007 1294.0012"
   sodipodi:docname="logo-semillero.svg"
   inkscape:version="1.0.1 (3bc2e813f5, 2020-09-07)"><metadata
     id="metadata8"><rdf:RDF><cc:Work
         rdf:about=""><dc:format>image/svg+xml</dc:format><dc:type
           rdf:resource="http://purl.org/dc/dcmitype/StillImage" /><dc:title></dc:title></cc:Work></rdf:RDF></metadata><defs
     id="defs6" /><sodipodi:namedview
     pagecolor="#ffffff"
     bordercolor="#666666"
     borderopacity="1"
     objecttolerance="10"
     gridtolerance="10"
     guidetolerance="10"
     inkscape:pageopacity="0"
     inkscape:pageshadow="2"
     inkscape:window-width="1366"
     inkscape:window-height="705"
     id="namedview4"
     showgrid="false"
     inkscape:zoom="0.19005447"
     inkscape:cx="492.1513"
     inkscape:cy="852.58128"
     inkscape:window-x="-8"
     inkscape:window-y="-8"
     inkscape:window-maximized="1"
     inkscape:current-layer="g10"
     showguides="false" /><g
     id="g10"
     inkscape:groupmode="layer"
     inkscape:label="pendon"
     transform="matrix(1.3333333,0,0,1.3333333,0,1.1016697e-5)"><path
       d="m 244.672,686.148 h 803.808 c 1.946,-16.339 2.95,-32.976 2.95,-49.851 0,-226.934 -181.262,-410.899 -404.856,-410.899 -223.594,0 -404.851,183.965 -404.851,410.899 0,16.875 1.004,33.512 2.949,49.851 z M 833.199,525.613 c -36.414,0 -65.933,-27.05 -65.933,-60.429 0,-33.379 29.519,-60.438 65.933,-60.438 36.414,0 65.926,27.059 65.926,60.438 0,33.379 -29.512,60.429 -65.926,60.429 z M 519.344,403.371 c 61.062,0 110.574,42.43 110.574,94.777 0,52.344 -49.512,94.77 -110.574,94.77 -61.063,0 -110.567,-42.426 -110.567,-94.77 0,-52.347 49.504,-94.777 110.567,-94.777"
       style="fill:#0c7997;fill-opacity:1;fill-rule:evenodd;stroke:none"
       id="path14" /><path
       d="m 909.402,313.172 c 66.383,45.726 112.891,108.43 138.793,188.754 l 52.184,-18.09 c -5.574,-40.481 -20.738,-81.981 -50.649,-125.047 2.614,-27.512 19.239,-25.426 62.063,-43.004 5.652,0.102 11.652,-0.605 17.719,-2.254 24.047,-6.523 39.929,-25.156 35.461,-41.609 -4.457,-16.457 -27.575,-24.508 -51.629,-17.977 -24.051,6.516 -39.934,25.137 -35.465,41.602 1.719,6.348 6.215,11.449 12.48,14.941 -29.07,8.422 -39.984,5.793 -56.007,27.867 -23.227,-24.367 -55.668,-48.742 -88.899,-66.453 z"
       style="fill:#0c7997;fill-opacity:1;fill-rule:evenodd;stroke:none"
       id="path16" /><path
       d="m 418.516,237.996 c 115.105,-33.922 221.058,-45.59 317.699,-34.641 l 3.957,-39.589 C 687.395,155.512 634.602,153.73 581.82,158.504 v -22.012 c 27.243,-5.953 47.504,-28.484 47.504,-55.367 0,-31.43 -27.691,-56.91 -61.859,-56.91 -34.16,0 -61.86,25.48 -61.86,56.91 0,29.43 24.286,53.645 55.43,56.605 v 22.985 c -51.469,6.316 -102.933,18.863 -154.402,37.687 z"
       style="fill:#0c7997;fill-opacity:1;fill-rule:evenodd;stroke:none"
       id="path18" /><path
       d="m 202.73,601.379 c 4.09,-86.848 33.426,-161.734 87.106,-225.094 l -46.981,-31.316 c -28.265,26.574 -53.945,59.554 -70.464,90.039 -21.891,-17.617 -32.028,-12.063 -63.2,-12.602 5.278,-5.16 8.375,-11.445 8.375,-18.218 0,-17.567 -20.812,-31.805 -46.484,-31.805 -25.676,0 -46.488,14.238 -46.488,31.805 0,17.566 20.812,31.804 46.488,31.804 6.469,0 12.629,-0.906 18.223,-2.535 47.312,5.93 63.289,-0.621 73.297,26.02 -18.122,50.886 -22.008,96.238 -16.637,137.992 z"
       style="fill:#0c7997;fill-opacity:1;fill-rule:evenodd;stroke:none"
       id="path20" /><path
       d="M 855.531,866.883 H 807.41 v 79.402 h -47.672 v -79.402 h -47.672 v -23.688 h 143.465 z m 55.27,79.402 H 871.32 v -103.09 h 39.481 z m 151.957,0 H 931.656 v -87.148 l 31.735,-15.942 h 98.621 v 23.688 H 979.18 v 55.566 h 83.578 z m 151.656,0 h -39.625 v -31.582 h -52.293 v 31.582 h -39.629 v -87.148 l 23.688,-15.942 h 84.172 l 23.687,15.942 z m -39.625,-55.566 v -23.836 h -52.293 v 23.836 z"
       style="fill:#000000;fill-opacity:1;fill-rule:nonzero;stroke:none"
       id="path22" /><path
       d="m 205.559,939.969 h -41.161 v -41.16 h -53.789 v 41.16 H 69.602 V 837.148 h 111.437 l 23.625,15.899 v 22.137 l -22.879,12.632 23.774,10.993 z m -41.161,-61.664 v -17.532 h -53.789 v 17.532 z m 207.278,61.664 h -146.36 v -86.922 l 31.653,-15.899 h 86.918 l 27.789,15.899 z m -43.539,-23.774 v -55.422 h -55.422 v 55.422 z m 205.937,23.774 H 392.328 V 837.148 h 109.356 l 31.648,15.899 v 23.625 l -30.906,12.777 31.648,10.996 z m -47.543,-61.664 v -17.532 h -54.828 v 17.532 z m 0,37.89 v -17.386 h -54.828 v 17.386 z"
       style="fill:#000000;fill-opacity:1;fill-rule:nonzero;stroke:none"
       id="path24" /><path
       d="M 693.949,939.672 H 559.391 V 854.41 l 29.097,-15.594 h 79.914 l 25.547,15.594 z m -40.027,-23.32 v -54.364 h -50.953 v 54.364 z"
       style="fill:#000000;fill-opacity:1;fill-rule:nonzero;stroke:none"
       id="path26" /><g
       id="g28"
       transform="scale(1,-1)"><path
         d="M 21.441,-686.148 H 1218.008"
         style="fill:none;stroke:#000000;stroke-width:1.4173;stroke-linecap:butt;stroke-linejoin:miter;stroke-miterlimit:22.9256;stroke-dasharray:none;stroke-opacity:1"
         id="path30" /></g><path
       d="M 234.727,813.25 H 118.238 v -23.504 h 77.535 v -17.773 h -52.015 l -26.133,-15.571 v -29.086 l 26.133,-15.718 h 88.523 v 23.355 h -75.457 v 16.602 h 51.891 l 26.012,15.718 z m 127.472,0 H 251.816 V 711.598 h 108.797 v 23.355 H 290.77 v 15.719 h 59.464 l -19.414,20.422 h -40.05 v 18.652 h 71.429 z m 146.649,0 H 476.855 V 755.375 L 455.488,813.25 H 430.82 L 408.234,755.375 V 813.25 H 376.363 V 711.598 h 39.442 l 28.203,73.593 28.816,-73.593 h 36.024 z m 49.574,0 H 526.063 V 711.598 h 32.359 z m 108.547,0 H 576.004 V 711.598 h 32.355 v 78.148 h 58.61 z m 100.617,0 H 676.617 V 711.598 h 32.356 v 78.148 h 58.613 z m 120.027,0 H 777.23 V 711.598 h 108.793 v 23.355 h -69.839 v 15.719 h 59.464 l -19.414,20.422 h -40.05 v 18.652 h 71.429 z m 125.887,0 h -33.824 v -40.691 h -44.199 v 40.691 h -33.7 V 711.598 h 91.575 l 19.418,15.718 v 21.887 l -18.805,12.488 19.535,10.868 z m -33.824,-60.961 v -17.336 h -44.199 v 17.336 z m 170.34,60.961 h -120.274 v -85.934 l 26.008,-15.718 h 71.43 l 22.836,15.718 z m -35.778,-23.504 v -54.793 h -45.547 v 54.793 z"
       style="fill:#000000;fill-opacity:1;fill-rule:nonzero;stroke:none"
       id="path32" /></g></svg>
