<?xml version="1.0" encoding="utf-8"?>
<svg viewBox="-211.506 551.797 1526.416 312.916" xmlns="http://www.w3.org/2000/svg">
  <path d="M 855.531,866.883 H 807.41 v 79.402 h -47.672 v -79.402 h -47.672 v -23.688 h 143.465 z m 55.27,79.402 H 871.32 v -103.09 h 39.481 z m 151.957,0 H 931.656 v -87.148 l 31.735,-15.942 h 98.621 v 23.688 H 979.18 v 55.566 h 83.578 z m 151.656,0 h -39.625 v -31.582 h -52.293 v 31.582 h -39.629 v -87.148 l 23.688,-15.942 h 84.172 l 23.687,15.942 z m -39.625,-55.566 v -23.836 h -52.293 v 23.836 z" style="fill:#000000;fill-opacity:1;fill-rule:nonzero;stroke:none" id="path22" transform="matrix(1.333333, 0, 0, 1.333333, -304.30838, -396.999878)"/>
  <path d="m 205.559,939.969 h -41.161 v -41.16 h -53.789 v 41.16 H 69.602 V 837.148 h 111.437 l 23.625,15.899 v 22.137 l -22.879,12.632 23.774,10.993 z m -41.161,-61.664 v -17.532 h -53.789 v 17.532 z m 207.278,61.664 h -146.36 v -86.922 l 31.653,-15.899 h 86.918 l 27.789,15.899 z m -43.539,-23.774 v -55.422 h -55.422 v 55.422 z m 205.937,23.774 H 392.328 V 837.148 h 109.356 l 31.648,15.899 v 23.625 l -30.906,12.777 31.648,10.996 z m -47.543,-61.664 v -17.532 h -54.828 v 17.532 z m 0,37.89 v -17.386 h -54.828 v 17.386 z" style="fill:#000000;fill-opacity:1;fill-rule:nonzero;stroke:none" id="path24" transform="matrix(1.333333, 0, 0, 1.333333, -304.30838, -396.999878)"/>
  <path d="M 693.949,939.672 H 559.391 V 854.41 l 29.097,-15.594 h 79.914 l 25.547,15.594 z m -40.027,-23.32 v -54.364 h -50.953 v 54.364 z" style="fill:#000000;fill-opacity:1;fill-rule:nonzero;stroke:none" id="path26" transform="matrix(1.333333, 0, 0, 1.333333, -304.30838, -396.999878)"/>
  <path d="M 234.727,813.25 H 118.238 v -23.504 h 77.535 v -17.773 h -52.015 l -26.133,-15.571 v -29.086 l 26.133,-15.718 h 88.523 v 23.355 h -75.457 v 16.602 h 51.891 l 26.012,15.718 z m 127.472,0 H 251.816 V 711.598 h 108.797 v 23.355 H 290.77 v 15.719 h 59.464 l -19.414,20.422 h -40.05 v 18.652 h 71.429 z m 146.649,0 H 476.855 V 755.375 L 455.488,813.25 H 430.82 L 408.234,755.375 V 813.25 H 376.363 V 711.598 h 39.442 l 28.203,73.593 28.816,-73.593 h 36.024 z m 49.574,0 H 526.063 V 711.598 h 32.359 z m 108.547,0 H 576.004 V 711.598 h 32.355 v 78.148 h 58.61 z m 100.617,0 H 676.617 V 711.598 h 32.356 v 78.148 h 58.613 z m 120.027,0 H 777.23 V 711.598 h 108.793 v 23.355 h -69.839 v 15.719 h 59.464 l -19.414,20.422 h -40.05 v 18.652 h 71.429 z m 125.887,0 h -33.824 v -40.691 h -44.199 v 40.691 h -33.7 V 711.598 h 91.575 l 19.418,15.718 v 21.887 l -18.805,12.488 19.535,10.868 z m -33.824,-60.961 v -17.336 h -44.199 v 17.336 z m 170.34,60.961 h -120.274 v -85.934 l 26.008,-15.718 h 71.43 l 22.836,15.718 z m -35.778,-23.504 v -54.793 h -45.547 v 54.793 z" style="fill:#000000;fill-opacity:1;fill-rule:nonzero;stroke:none" id="path32" transform="matrix(1.333333, 0, 0, 1.333333, -304.30838, -396.999878)"/>
</svg>